<mxfile host="app.diagrams.net" modified="2021-10-20T14:28:24.294Z" agent="5.0 (Macintosh; Intel Mac OS X 10_15_7) AppleWebKit/537.36 (KHTML, like Gecko) Chrome/94.0.4606.81 Safari/537.36" etag="e45yD2DSx3Boqani7a0G" version="15.5.6" type="github">
  <diagram id="kgpKYQtTHZ0yAKxKKP6v" name="Page-1">
    <mxGraphModel dx="1878" dy="939" grid="1" gridSize="10" guides="1" tooltips="1" connect="1" arrows="1" fold="1" page="1" pageScale="1" pageWidth="850" pageHeight="1100" math="0" shadow="0">
      <root>
        <mxCell id="0" />
        <mxCell id="1" parent="0" />
        <mxCell id="3nuBFxr9cyL0pnOWT2aG-1" value="Frontend" style="shape=umlLifeline;perimeter=lifelinePerimeter;container=1;collapsible=0;recursiveResize=0;rounded=0;shadow=0;strokeWidth=1;" parent="1" vertex="1">
          <mxGeometry x="185" y="80" width="100" height="420" as="geometry" />
        </mxCell>
        <mxCell id="3nuBFxr9cyL0pnOWT2aG-4" value="" style="points=[];perimeter=orthogonalPerimeter;rounded=0;shadow=0;strokeWidth=1;" parent="3nuBFxr9cyL0pnOWT2aG-1" vertex="1">
          <mxGeometry x="635" y="201" width="10" height="80" as="geometry" />
        </mxCell>
        <mxCell id="3nuBFxr9cyL0pnOWT2aG-5" value="Data service" style="shape=umlLifeline;perimeter=lifelinePerimeter;container=1;collapsible=0;recursiveResize=0;rounded=0;shadow=0;strokeWidth=1;" parent="1" vertex="1">
          <mxGeometry x="385" y="80" width="115" height="430" as="geometry" />
        </mxCell>
        <mxCell id="dnAo3SwQJWSGa_DGvsRw-8" value="Connection test result" style="verticalAlign=bottom;endArrow=open;dashed=1;endSize=8;shadow=0;strokeWidth=1;entryX=0.504;entryY=0.632;entryDx=0;entryDy=0;entryPerimeter=0;exitX=0.514;exitY=0.632;exitDx=0;exitDy=0;exitPerimeter=0;" edge="1" parent="3nuBFxr9cyL0pnOWT2aG-5">
          <mxGeometry relative="1" as="geometry">
            <mxPoint x="-149.99999999999991" y="260" as="targetPoint" />
            <mxPoint x="51.000000000000114" y="260" as="sourcePoint" />
          </mxGeometry>
        </mxCell>
        <mxCell id="3nuBFxr9cyL0pnOWT2aG-7" value="return" style="verticalAlign=bottom;endArrow=open;dashed=1;endSize=8;exitX=0;exitY=0.95;shadow=0;strokeWidth=1;" parent="1" edge="1">
          <mxGeometry relative="1" as="geometry">
            <mxPoint x="760" y="392.9999999999998" as="targetPoint" />
            <mxPoint x="930" y="392.9999999999998" as="sourcePoint" />
          </mxGeometry>
        </mxCell>
        <mxCell id="3nuBFxr9cyL0pnOWT2aG-8" value="Get connectors list" style="verticalAlign=bottom;endArrow=block;shadow=0;strokeWidth=1;" parent="1" edge="1">
          <mxGeometry relative="1" as="geometry">
            <mxPoint x="235" y="160.0000000000001" as="sourcePoint" />
            <mxPoint x="435" y="160" as="targetPoint" />
          </mxGeometry>
        </mxCell>
        <mxCell id="3nuBFxr9cyL0pnOWT2aG-9" value="callback" style="verticalAlign=bottom;endArrow=block;entryX=1;entryY=0;shadow=0;strokeWidth=1;" parent="1" target="3nuBFxr9cyL0pnOWT2aG-4" edge="1">
          <mxGeometry relative="1" as="geometry">
            <mxPoint x="930" y="281" as="sourcePoint" />
          </mxGeometry>
        </mxCell>
        <mxCell id="3nuBFxr9cyL0pnOWT2aG-10" value="return" style="verticalAlign=bottom;endArrow=open;dashed=1;endSize=8;exitX=1;exitY=0.95;shadow=0;strokeWidth=1;" parent="1" source="3nuBFxr9cyL0pnOWT2aG-4" edge="1">
          <mxGeometry relative="1" as="geometry">
            <mxPoint x="930" y="357" as="targetPoint" />
          </mxGeometry>
        </mxCell>
        <mxCell id="dnAo3SwQJWSGa_DGvsRw-1" value="Connector[]" style="verticalAlign=bottom;endArrow=open;dashed=1;endSize=8;exitX=0.494;exitY=0.395;shadow=0;strokeWidth=1;exitDx=0;exitDy=0;exitPerimeter=0;" edge="1" parent="1">
          <mxGeometry relative="1" as="geometry">
            <mxPoint x="235" y="199" as="targetPoint" />
            <mxPoint x="434.4000000000001" y="198.5" as="sourcePoint" />
          </mxGeometry>
        </mxCell>
        <mxCell id="3nuBFxr9cyL0pnOWT2aG-3" value="Open connectors screen" style="verticalAlign=bottom;startArrow=oval;endArrow=block;startSize=8;shadow=0;strokeWidth=1;entryX=0.524;entryY=0.232;entryDx=0;entryDy=0;entryPerimeter=0;" parent="1" edge="1">
          <mxGeometry relative="1" as="geometry">
            <mxPoint x="60" y="150" as="sourcePoint" />
            <mxPoint x="231.4000000000001" y="149.60000000000002" as="targetPoint" />
            <Array as="points">
              <mxPoint x="189" y="150" />
            </Array>
          </mxGeometry>
        </mxCell>
        <mxCell id="dnAo3SwQJWSGa_DGvsRw-3" value="Salesforce connector selected" style="verticalAlign=bottom;startArrow=oval;endArrow=block;startSize=8;shadow=0;strokeWidth=1;entryX=0.524;entryY=0.232;entryDx=0;entryDy=0;entryPerimeter=0;" edge="1" parent="1">
          <mxGeometry relative="1" as="geometry">
            <mxPoint x="60" y="230" as="sourcePoint" />
            <mxPoint x="231.4000000000001" y="229.50000000000003" as="targetPoint" />
            <Array as="points">
              <mxPoint x="189" y="229.9" />
            </Array>
          </mxGeometry>
        </mxCell>
        <mxCell id="dnAo3SwQJWSGa_DGvsRw-4" value="Get Salesforce connection params" style="verticalAlign=bottom;endArrow=block;shadow=0;strokeWidth=1;" edge="1" parent="1">
          <mxGeometry relative="1" as="geometry">
            <mxPoint x="235" y="234" as="sourcePoint" />
            <mxPoint x="435" y="234" as="targetPoint" />
          </mxGeometry>
        </mxCell>
        <mxCell id="dnAo3SwQJWSGa_DGvsRw-5" value="Connection param[]" style="verticalAlign=bottom;endArrow=open;dashed=1;endSize=8;shadow=0;strokeWidth=1;entryX=0.504;entryY=0.451;entryDx=0;entryDy=0;entryPerimeter=0;exitX=0.514;exitY=0.632;exitDx=0;exitDy=0;exitPerimeter=0;" edge="1" parent="1">
          <mxGeometry relative="1" as="geometry">
            <mxPoint x="235.4000000000001" y="269.4200000000001" as="targetPoint" />
            <mxPoint x="436.4000000000001" y="269.6" as="sourcePoint" />
          </mxGeometry>
        </mxCell>
        <mxCell id="dnAo3SwQJWSGa_DGvsRw-6" value="Enter connection details" style="verticalAlign=bottom;startArrow=oval;endArrow=block;startSize=8;shadow=0;strokeWidth=1;entryX=0.524;entryY=0.232;entryDx=0;entryDy=0;entryPerimeter=0;" edge="1" parent="1">
          <mxGeometry relative="1" as="geometry">
            <mxPoint x="60" y="305" as="sourcePoint" />
            <mxPoint x="227.4000000000001" y="305" as="targetPoint" />
            <Array as="points" />
          </mxGeometry>
        </mxCell>
        <mxCell id="dnAo3SwQJWSGa_DGvsRw-7" value="Connection details" style="verticalAlign=bottom;endArrow=block;shadow=0;strokeWidth=1;" edge="1" parent="1">
          <mxGeometry relative="1" as="geometry">
            <mxPoint x="235" y="305" as="sourcePoint" />
            <mxPoint x="435" y="305" as="targetPoint" />
          </mxGeometry>
        </mxCell>
        <mxCell id="dnAo3SwQJWSGa_DGvsRw-9" value="Create connector" style="verticalAlign=bottom;startArrow=oval;endArrow=block;startSize=8;shadow=0;strokeWidth=1;entryX=0.524;entryY=0.232;entryDx=0;entryDy=0;entryPerimeter=0;" edge="1" parent="1">
          <mxGeometry relative="1" as="geometry">
            <mxPoint x="60" y="376" as="sourcePoint" />
            <mxPoint x="227.4000000000001" y="376" as="targetPoint" />
            <Array as="points" />
          </mxGeometry>
        </mxCell>
        <mxCell id="dnAo3SwQJWSGa_DGvsRw-10" value="Create connector " style="verticalAlign=bottom;endArrow=block;shadow=0;strokeWidth=1;" edge="1" parent="1">
          <mxGeometry relative="1" as="geometry">
            <mxPoint x="238" y="385" as="sourcePoint" />
            <mxPoint x="438" y="385" as="targetPoint" />
          </mxGeometry>
        </mxCell>
        <mxCell id="dnAo3SwQJWSGa_DGvsRw-11" value="CDATA" style="shape=umlLifeline;perimeter=lifelinePerimeter;container=1;collapsible=0;recursiveResize=0;rounded=0;shadow=0;strokeWidth=1;" vertex="1" parent="1">
          <mxGeometry x="600" y="80" width="100" height="430" as="geometry" />
        </mxCell>
        <mxCell id="dnAo3SwQJWSGa_DGvsRw-13" value=" " style="verticalAlign=bottom;endArrow=block;shadow=0;strokeWidth=1;" edge="1" parent="1">
          <mxGeometry relative="1" as="geometry">
            <mxPoint x="440" y="240" as="sourcePoint" />
            <mxPoint x="640" y="240" as="targetPoint" />
          </mxGeometry>
        </mxCell>
        <mxCell id="dnAo3SwQJWSGa_DGvsRw-14" value=" " style="verticalAlign=bottom;endArrow=open;dashed=1;endSize=8;shadow=0;strokeWidth=1;entryX=0.504;entryY=0.451;entryDx=0;entryDy=0;entryPerimeter=0;exitX=0.514;exitY=0.632;exitDx=0;exitDy=0;exitPerimeter=0;" edge="1" parent="1">
          <mxGeometry relative="1" as="geometry">
            <mxPoint x="440.0000000000001" y="260.00000000000006" as="targetPoint" />
            <mxPoint x="641.0000000000003" y="260.18" as="sourcePoint" />
          </mxGeometry>
        </mxCell>
      </root>
    </mxGraphModel>
  </diagram>
</mxfile>
